<mxfile host="app.diagrams.net" modified="2023-01-05T13:21:44.801Z" agent="5.0 (Windows NT 10.0; Win64; x64) AppleWebKit/537.36 (KHTML, like Gecko) Chrome/108.0.0.0 Safari/537.36" version="20.8.1" etag="JJbKrryRA-lgkl9gNdEV" type="github">
  <diagram id="elidSX0FJjzNAuEpeP3o" name="Page-1">
    <mxGraphModel dx="2284" dy="764" grid="1" gridSize="10" guides="1" tooltips="1" connect="1" arrows="1" fold="1" page="1" pageScale="1" pageWidth="850" pageHeight="1100" math="0" shadow="0">
      <root>
        <mxCell id="0" />
        <mxCell id="1" parent="0" />
        <mxCell id="9uRYfIwiwcohv9zjMEO3-34" value="" style="rounded=0;whiteSpace=wrap;html=1;" vertex="1" parent="1">
          <mxGeometry x="-470" y="550" width="710" height="490" as="geometry" />
        </mxCell>
        <mxCell id="9uRYfIwiwcohv9zjMEO3-2" value="&lt;p style=&quot;margin:0px;margin-top:4px;margin-left:10px;text-align:left;&quot;&gt;&lt;b&gt;Web System&lt;/b&gt;&lt;/p&gt;" style="html=1;shape=mxgraph.sysml.package;html=1;overflow=fill;whiteSpace=wrap;" vertex="1" parent="1">
          <mxGeometry x="700" y="340" width="300" height="140" as="geometry" />
        </mxCell>
        <mxCell id="9uRYfIwiwcohv9zjMEO3-4" value="&lt;p style=&quot;margin:0px;margin-top:4px;margin-left:10px;text-align:left;&quot;&gt;&lt;b&gt;Spring API&lt;/b&gt;&lt;/p&gt;" style="html=1;shape=mxgraph.sysml.package;html=1;overflow=fill;whiteSpace=wrap;" vertex="1" parent="1">
          <mxGeometry x="390" y="340" width="220" height="140" as="geometry" />
        </mxCell>
        <mxCell id="9uRYfIwiwcohv9zjMEO3-5" value="" style="shape=cylinder3;whiteSpace=wrap;html=1;boundedLbl=1;backgroundOutline=1;size=15;" vertex="1" parent="1">
          <mxGeometry x="445" y="570" width="110" height="100" as="geometry" />
        </mxCell>
        <mxCell id="9uRYfIwiwcohv9zjMEO3-9" value="" style="shape=cylinder3;whiteSpace=wrap;html=1;boundedLbl=1;backgroundOutline=1;size=15;" vertex="1" parent="1">
          <mxGeometry x="610" y="570" width="110" height="100" as="geometry" />
        </mxCell>
        <mxCell id="9uRYfIwiwcohv9zjMEO3-10" value="" style="endArrow=classic;html=1;rounded=0;entryX=0.5;entryY=0;entryDx=0;entryDy=0;entryPerimeter=0;exitX=0.5;exitY=1;exitDx=0;exitDy=0;exitPerimeter=0;" edge="1" parent="1" source="9uRYfIwiwcohv9zjMEO3-4" target="9uRYfIwiwcohv9zjMEO3-5">
          <mxGeometry width="50" height="50" relative="1" as="geometry">
            <mxPoint x="460" y="500" as="sourcePoint" />
            <mxPoint x="310" y="450" as="targetPoint" />
          </mxGeometry>
        </mxCell>
        <mxCell id="9uRYfIwiwcohv9zjMEO3-11" value="" style="endArrow=classic;html=1;rounded=0;entryX=0;entryY=0.5;entryDx=0;entryDy=0;entryPerimeter=0;exitX=1;exitY=0.5;exitDx=0;exitDy=0;exitPerimeter=0;" edge="1" parent="1" source="9uRYfIwiwcohv9zjMEO3-5" target="9uRYfIwiwcohv9zjMEO3-9">
          <mxGeometry width="50" height="50" relative="1" as="geometry">
            <mxPoint x="260" y="500" as="sourcePoint" />
            <mxPoint x="310" y="450" as="targetPoint" />
          </mxGeometry>
        </mxCell>
        <mxCell id="9uRYfIwiwcohv9zjMEO3-12" value="Cache Database" style="text;html=1;strokeColor=none;fillColor=none;align=center;verticalAlign=middle;whiteSpace=wrap;rounded=0;" vertex="1" parent="1">
          <mxGeometry x="470" y="680" width="60" height="30" as="geometry" />
        </mxCell>
        <mxCell id="9uRYfIwiwcohv9zjMEO3-13" value="Database" style="text;html=1;strokeColor=none;fillColor=none;align=center;verticalAlign=middle;whiteSpace=wrap;rounded=0;" vertex="1" parent="1">
          <mxGeometry x="635" y="680" width="60" height="30" as="geometry" />
        </mxCell>
        <mxCell id="9uRYfIwiwcohv9zjMEO3-14" value="" style="endArrow=classic;html=1;rounded=0;entryX=1;entryY=0.5;entryDx=0;entryDy=0;entryPerimeter=0;exitX=0;exitY=0.5;exitDx=0;exitDy=0;exitPerimeter=0;" edge="1" parent="1" source="9uRYfIwiwcohv9zjMEO3-2" target="9uRYfIwiwcohv9zjMEO3-4">
          <mxGeometry width="50" height="50" relative="1" as="geometry">
            <mxPoint x="260" y="500" as="sourcePoint" />
            <mxPoint x="310" y="450" as="targetPoint" />
          </mxGeometry>
        </mxCell>
        <mxCell id="9uRYfIwiwcohv9zjMEO3-15" value="HTTP" style="text;html=1;strokeColor=none;fillColor=none;align=center;verticalAlign=middle;whiteSpace=wrap;rounded=0;" vertex="1" parent="1">
          <mxGeometry x="630" y="380" width="60" height="30" as="geometry" />
        </mxCell>
        <mxCell id="9uRYfIwiwcohv9zjMEO3-16" value="&lt;p style=&quot;margin:0px;margin-top:4px;margin-left:10px;text-align:left;&quot;&gt;&lt;b&gt;Suggestion System&lt;/b&gt;&lt;/p&gt;" style="html=1;shape=mxgraph.sysml.package;html=1;overflow=fill;whiteSpace=wrap;labelX=135;" vertex="1" parent="1">
          <mxGeometry x="-20" y="340" width="220" height="140" as="geometry" />
        </mxCell>
        <mxCell id="9uRYfIwiwcohv9zjMEO3-17" value="" style="endArrow=classic;html=1;rounded=0;entryX=1;entryY=0.5;entryDx=0;entryDy=0;entryPerimeter=0;exitX=0;exitY=0.5;exitDx=0;exitDy=0;exitPerimeter=0;" edge="1" parent="1" source="9uRYfIwiwcohv9zjMEO3-4" target="9uRYfIwiwcohv9zjMEO3-16">
          <mxGeometry width="50" height="50" relative="1" as="geometry">
            <mxPoint x="260" y="500" as="sourcePoint" />
            <mxPoint x="310" y="450" as="targetPoint" />
          </mxGeometry>
        </mxCell>
        <mxCell id="9uRYfIwiwcohv9zjMEO3-18" value="requestSystem(preferences)" style="text;html=1;strokeColor=none;fillColor=none;align=center;verticalAlign=middle;whiteSpace=wrap;rounded=0;" vertex="1" parent="1">
          <mxGeometry x="270" y="380" width="60" height="30" as="geometry" />
        </mxCell>
        <mxCell id="9uRYfIwiwcohv9zjMEO3-19" value="&lt;p style=&quot;margin:0px;margin-top:4px;margin-left:10px;text-align:left;&quot;&gt;&lt;b&gt;Components API&lt;/b&gt;&lt;/p&gt;" style="html=1;shape=mxgraph.sysml.package;html=1;overflow=fill;whiteSpace=wrap;labelX=113;" vertex="1" parent="1">
          <mxGeometry x="-20" y="570" width="220" height="135" as="geometry" />
        </mxCell>
        <mxCell id="9uRYfIwiwcohv9zjMEO3-20" value="" style="endArrow=classic;html=1;rounded=0;exitX=0.5;exitY=1;exitDx=0;exitDy=0;exitPerimeter=0;entryX=0.5;entryY=0;entryDx=0;entryDy=0;entryPerimeter=0;" edge="1" parent="1" source="9uRYfIwiwcohv9zjMEO3-16" target="9uRYfIwiwcohv9zjMEO3-19">
          <mxGeometry width="50" height="50" relative="1" as="geometry">
            <mxPoint x="210" y="500" as="sourcePoint" />
            <mxPoint x="260" y="450" as="targetPoint" />
          </mxGeometry>
        </mxCell>
        <mxCell id="9uRYfIwiwcohv9zjMEO3-21" value="requestComponents(component,preference)" style="text;html=1;strokeColor=none;fillColor=none;align=center;verticalAlign=middle;whiteSpace=wrap;rounded=0;" vertex="1" parent="1">
          <mxGeometry x="190" y="510" width="60" height="30" as="geometry" />
        </mxCell>
        <mxCell id="9uRYfIwiwcohv9zjMEO3-23" value="" style="shape=cylinder3;whiteSpace=wrap;html=1;boundedLbl=1;backgroundOutline=1;size=15;" vertex="1" parent="1">
          <mxGeometry x="-220" y="590" width="110" height="100" as="geometry" />
        </mxCell>
        <mxCell id="9uRYfIwiwcohv9zjMEO3-24" value="Components&lt;br&gt;Database" style="text;html=1;strokeColor=none;fillColor=none;align=center;verticalAlign=middle;whiteSpace=wrap;rounded=0;" vertex="1" parent="1">
          <mxGeometry x="-195" y="700" width="60" height="30" as="geometry" />
        </mxCell>
        <mxCell id="9uRYfIwiwcohv9zjMEO3-25" value="" style="endArrow=classic;html=1;rounded=0;entryX=1;entryY=0.5;entryDx=0;entryDy=0;entryPerimeter=0;" edge="1" parent="1" source="9uRYfIwiwcohv9zjMEO3-19" target="9uRYfIwiwcohv9zjMEO3-23">
          <mxGeometry width="50" height="50" relative="1" as="geometry">
            <mxPoint x="-10" y="590" as="sourcePoint" />
            <mxPoint x="40" y="540" as="targetPoint" />
          </mxGeometry>
        </mxCell>
        <mxCell id="9uRYfIwiwcohv9zjMEO3-28" value="&lt;p style=&quot;margin:0px;margin-top:4px;margin-left:10px;text-align:left;&quot;&gt;&lt;b&gt;Web Scraper&lt;/b&gt;&lt;/p&gt;" style="html=1;shape=mxgraph.sysml.package;html=1;overflow=fill;whiteSpace=wrap;labelX=113;" vertex="1" parent="1">
          <mxGeometry x="-20" y="770" width="220" height="135" as="geometry" />
        </mxCell>
        <mxCell id="9uRYfIwiwcohv9zjMEO3-29" value="&lt;p style=&quot;margin:0px;margin-top:4px;margin-left:10px;text-align:left;&quot;&gt;&lt;b&gt;Web Crawler&lt;/b&gt;&lt;/p&gt;" style="html=1;shape=mxgraph.sysml.package;html=1;overflow=fill;whiteSpace=wrap;labelX=113;" vertex="1" parent="1">
          <mxGeometry x="-300" y="820" width="220" height="135" as="geometry" />
        </mxCell>
        <mxCell id="9uRYfIwiwcohv9zjMEO3-30" value="" style="sketch=0;html=1;aspect=fixed;strokeColor=none;shadow=0;align=center;verticalAlign=top;fillColor=#3B8DF1;shape=mxgraph.gcp2.arrows_system" vertex="1" parent="1">
          <mxGeometry x="-140" y="840" width="42.11" height="40" as="geometry" />
        </mxCell>
        <mxCell id="9uRYfIwiwcohv9zjMEO3-31" value="Once a day" style="text;html=1;strokeColor=none;fillColor=none;align=center;verticalAlign=middle;whiteSpace=wrap;rounded=0;" vertex="1" parent="1">
          <mxGeometry x="-148.95" y="880" width="60" height="30" as="geometry" />
        </mxCell>
        <mxCell id="9uRYfIwiwcohv9zjMEO3-32" value="" style="endArrow=classic;html=1;rounded=0;entryX=0.5;entryY=1;entryDx=0;entryDy=0;entryPerimeter=0;exitX=0.5;exitY=0;exitDx=0;exitDy=0;exitPerimeter=0;" edge="1" parent="1" source="9uRYfIwiwcohv9zjMEO3-28" target="9uRYfIwiwcohv9zjMEO3-19">
          <mxGeometry width="50" height="50" relative="1" as="geometry">
            <mxPoint x="-10" y="890" as="sourcePoint" />
            <mxPoint x="40" y="840" as="targetPoint" />
          </mxGeometry>
        </mxCell>
        <mxCell id="9uRYfIwiwcohv9zjMEO3-33" value="" style="endArrow=classic;html=1;rounded=0;entryX=0.25;entryY=1;entryDx=0;entryDy=0;entryPerimeter=0;exitX=1.009;exitY=0.844;exitDx=0;exitDy=0;exitPerimeter=0;" edge="1" parent="1" source="9uRYfIwiwcohv9zjMEO3-29" target="9uRYfIwiwcohv9zjMEO3-28">
          <mxGeometry width="50" height="50" relative="1" as="geometry">
            <mxPoint x="-10" y="890" as="sourcePoint" />
            <mxPoint x="40" y="840" as="targetPoint" />
            <Array as="points">
              <mxPoint x="35" y="934" />
            </Array>
          </mxGeometry>
        </mxCell>
        <mxCell id="9uRYfIwiwcohv9zjMEO3-35" value="Publish/Subscribe" style="text;html=1;strokeColor=none;fillColor=none;align=center;verticalAlign=middle;whiteSpace=wrap;rounded=0;" vertex="1" parent="1">
          <mxGeometry x="-440" y="570" width="60" height="30" as="geometry" />
        </mxCell>
      </root>
    </mxGraphModel>
  </diagram>
</mxfile>
